<svg width="45" height="45" viewBox="0 0 45 45" fill="none" xmlns="http://www.w3.org/2000/svg">
<path d="M45 20.2223C45 17.6189 42.8819 15.5008 40.2785 15.5008C37.675 15.5008 35.557 17.6189 35.557 20.2223C35.557 21.4067 35.9963 22.4895 36.719 23.3192L31.8381 27.7967L25.6132 14.9322L29.2514 10.6588L22.5256 2.75867L15.7999 10.659L19.2762 14.7422L13.0956 27.7234L8.28327 23.3167C9.00491 22.4873 9.44325 21.4054 9.44325 20.2223C9.44325 17.6189 7.32518 15.5008 4.72173 15.5008C2.11807 15.5008 0 17.6189 0 20.2223C0 22.6348 1.81943 24.6293 4.158 24.9091L5.60475 42.2413H39.3955L40.8422 24.9091C43.1806 24.6293 45 22.6348 45 20.2223Z" fill="#D19C1D"/>
</svg>
